# xmcd CD database file generated by Grip 2.96
# 
# Track frame offsets:
#       150
#       20646
#       37562
#       54140
#       72632
#       96271
#       115909
#       140840
#       163577
#       179291
#       193586
#       224481
#       252807
#       265931
#       298367
# 
# Disc length: 4407 seconds
# 
# Revision: 0
# Processed by: cddbd v1.4PL0 Copyright (c) Steve Scherf et al.
# Submitted via: Grip 2.96
# 
DISCID=e411350f
DTITLE=Blue Monday - Live at the Toucan
DYEAR=1900
DGENRE=
TTITLE0=I Got Over It
TTITLE1=Buried Alive In The Blues
TTITLE2=Standing At The Station
TTITLE3=In A Haunted House
TTITLE4=The Thrill Is Gone
TTITLE5=Saturday Night Fish Fry
TTITLE6=Serves Me Right To Suffer
TTITLE7=Death Letter
TTITLE8=Trouble No More
TTITLE9=I Never Felt This Way Before
TTITLE10=Tin Pan Alley
TTITLE11=Playing With My Friends
TTITLE12=Tired Of Talkin
TTITLE13=Mother Earth
TTITLE14=Hip Shake
EXTD=
EXTT0=
EXTT1=
EXTT2=
EXTT3=
EXTT4=
EXTT5=
EXTT6=
EXTT7=
EXTT8=
EXTT9=
EXTT10=
EXTT11=
EXTT12=
EXTT13=
EXTT14=
PLAYORDER=
